#!OML:ASF X:\für Bonn\!DataBase\2005_08_10_Bjorn_Final\c3d\bjorn.ASF
:FULLY-SPECIFIED
:DEGREES
199
root -0.941566 17.3376 14.057 -541.81 24.5414 -532.584
lowerback 1.25513 0.456958 10.0816
upperback 10.1211 1.03077 1.42663
thorax 10.3054 1.71038 -3.92631
lowerneck -10.5537 5.66362 9.57014
upperneck -1.67844 6.9003 -10.1461
head 1.89791 3.30548 -4.2594
rclavicle 4.34344e-014 -4.14466e-014
rhumerus 48.6207 28.7934 -74.0673
rradius 89.6898
rwrist 27.0544
rhand -48.474 36.8588
rfingers 7.12502
rthumb -21.1238 7.98947
lclavicle 4.34344e-014 -4.14466e-014
lhumerus 22.3706 -32.4486 94.3719
lradius 94.8412
lwrist 33.9491
lhand -40.5468 -10.1576
lfingers 7.12502
lthumb -13.4949 19.3851
rfemur 356.067 0.961207 -336.922
rtibia 49.7059
rfoot -39.1989 6.77918
rtoes -25.1056
lfemur -36.0257 -7.44301 2.35386
ltibia 52.2565
lfoot -12.9931 11.541
ltoes -25.3858
200
root -0.951957 17.2471 13.9789 -541.595 24.5962 -532.106
lowerback 1.52689 0.381762 10.3066
upperback 10.0318 0.949609 1.71092
thorax 10.0301 1.66437 -3.75879
lowerneck -10.6196 5.71139 9.68798
upperneck -1.72547 6.95764 -10.4045
head 1.91563 3.33011 -4.35255
rclavicle 4.14963e-014 -3.91606e-014
rhumerus 49.2905 28.5523 -73.7033
rradius 90.0951
rwrist 26.8822
rhand -48.3202 36.7267
rfingers 7.12502
rthumb -20.976 7.84099
lclavicle 4.14963e-014 -3.91606e-014
lhumerus 23.2269 -32.7996 94.1547
lradius 95.3539
lwrist 33.5364
lhand -40.8541 -9.97513
lfingers 7.12502
lthumb -13.7911 19.5478
rfemur 355.733 1.00085 -336.615
rtibia 50.8505
rfoot -39.6785 6.72434
rtoes -26.1223
lfemur -36.6895 -7.34298 2.92065
ltibia 53.4327
lfoot -12.8771 11.4708
ltoes -26.2285
201
root -0.962539 17.1531 13.8991 -541.322 24.655 -531.547
lowerback 1.79531 0.305686 10.5938
upperback 9.89468 0.865664 2.0234
thorax 9.70554 1.61535 -3.59732
lowerneck -10.5675 5.75847 9.85851
upperneck -1.76364 7.01823 -10.7624
head 1.9246 3.3557 -4.48713
rclavicle 2.27608e-014 3.51849e-014
rhumerus 49.8934 28.3504 -73.3902
rradius 90.4728
rwrist 26.7326
rhand -48.1845 36.655
rfingers 7.12502
rthumb -20.8457 7.7549
lclavicle 2.27608e-014 3.51849e-014
lhumerus 24.0478 -33.0625 93.9193
lradius 95.883
lwrist 33.345
lhand -41.0903 -9.8109
lfingers 7.12502
lthumb -14.0187 19.6964
rfemur 355.372 1.07631 -336.238
rtibia 52.0027
rfoot -40.1101 6.76026
rtoes -26.9162
lfemur -37.4235 -7.04937 3.49425
ltibia 54.746
lfoot -12.7678 11.3192
ltoes -27.1237
202
root -0.97368 17.0578 13.8167 -540.963 24.7114 -530.951
lowerback 1.96735 0.25294 10.9387
upperback 9.73115 0.800198 2.33092
thorax 9.41606 1.57873 -3.47055
lowerneck -10.5099 5.78648 10.0894
upperneck -1.72939 7.05019 -11.1803
head 1.95663 3.3638 -4.6512
rclavicle -2.88238e-014 -1.76918e-014
rhumerus 50.3548 28.1691 -73.1267
rradius 90.9341
rwrist 26.59
rhand -48.0942 36.6195
rfingers 7.12502
rthumb -20.7589 7.70989
lclavicle -2.88238e-014 -1.76918e-014
lhumerus 24.9093 -33.2953 93.6393
lradius 96.4101
lwrist 33.296
lhand -41.2987 -9.743
lfingers 7.12502
lthumb -14.2195 19.7503
rfemur 354.939 1.19701 -335.834
rtibia 53.1592
rfoot -40.434 7.01559
rtoes -27.3942
lfemur -38.2577 -6.61563 4.05933
ltibia 56.1712
lfoot -12.7084 11.1056
ltoes -28.1444
203
root -0.98413 16.9626 13.7309 -540.521 24.7965 -530.34
lowerback 2.05495 0.224564 11.2976
upperback 9.53927 0.756208 2.64176
thorax 9.14979 1.5511 -3.34576
lowerneck -10.4344 5.80352 10.2025
upperneck -1.72501 7.07889 -11.4873
head 1.96765 3.37426 -4.76351
rclavicle -9.8299e-014 3.1408e-014
rhumerus 50.762 28.0478 -72.8637
rradius 91.3804
rwrist 26.439
rhand -48.076 36.7083
rfingers 7.12502
rthumb -20.7414 7.79677
lclavicle -9.8299e-014 3.1408e-014
lhumerus 25.8105 -33.4939 93.3559
lradius 96.9138
lwrist 33.2844
lhand -41.5386 -9.85921
lfingers 7.12502
lthumb -14.4506 19.6177
rfemur 354.429 1.35961 -335.431
rtibia 54.3078
rfoot -40.709 7.28422
rtoes -27.9276
lfemur -39.1493 -6.13589 4.61726
ltibia 57.6657
lfoot -12.7193 10.8707
ltoes -29.195
204
root -0.995003 16.8689 13.6414 -540.043 24.8843 -529.709
lowerback 2.0924 0.20124 11.7017
upperback 9.33623 0.714314 2.93546
thorax 8.90442 1.52834 -3.26318
lowerneck -10.297 5.83007 10.3652
upperneck -1.7546 7.11725 -11.7973
head 1.96185 3.3913 -4.88617
rclavicle -1.26228e-014 -4.77083e-015
rhumerus 51.2007 27.9132 -72.6636
rradius 91.7544
rwrist 26.356
rhand -48.1364 36.7985
rfingers 7.12502
rthumb -20.7994 7.89329
lclavicle -1.26228e-014 -4.77083e-015
lhumerus 26.7358 -33.6479 93.0528
lradius 97.3718
lwrist 33.2467
lhand -41.8159 -10.0718
lfingers 7.12502
lthumb -14.7178 19.3858
rfemur 353.926 1.53457 -335.028
rtibia 55.4218
rfoot -40.9026 7.70592
rtoes -28.2796
lfemur -40.0481 -5.68886 5.17659
ltibia 59.1973
lfoot -12.7216 10.6483
ltoes -30.1303
205
root -1.0055 16.7796 13.5482 -539.551 24.9694 -529.073
lowerback 2.11165 0.186046 12.1322
upperback 9.10985 0.683579 3.21438
thorax 8.64747 1.51071 -3.21067
lowerneck -10.1125 5.85296 10.526
upperneck -1.77815 7.15231 -12.0695
head 1.94833 3.40806 -4.99832
rclavicle -5.74488e-014 3.29983e-014
rhumerus 51.6149 27.7914 -72.5249
rradius 92.0651
rwrist 26.4035
rhand -48.2979 36.7114
rfingers 7.12502
rthumb -20.9546 7.82331
lclavicle -5.74488e-014 3.29983e-014
lhumerus 27.6182 -33.7892 92.742
lradius 97.8416
lwrist 33.2108
lhand -42.0651 -10.4615
lfingers 7.12502
lthumb -14.9579 18.9783
rfemur 353.449 1.70251 -334.64
rtibia 56.488
rfoot -41.0514 8.19831
rtoes -28.5133
lfemur -40.913 -5.28058 5.71114
ltibia 60.7245
lfoot -12.7042 10.5153
ltoes -31.1691
206
root -1.01531 16.6934 13.4498 -539.252 25.1094 -528.653
lowerback 2.1933 0.185788 12.378
upperback 8.93236 0.691405 3.42617
thorax 8.40792 1.50397 -3.12685
lowerneck -9.9148 5.88304 10.7136
upperneck -1.83783 7.19424 -12.3432
head 1.92394 3.42971 -5.11581
rclavicle 2.38542e-014 -1.74931e-014
rhumerus 52.0096 27.6651 -72.4423
rradius 92.3899
rwrist 26.4765
rhand -48.442 36.6754
rfingers 7.12502
rthumb -21.0931 7.8027
lclavicle 2.38542e-014 -1.74931e-014
lhumerus 28.5441 -33.9031 92.3926
lradius 98.3352
lwrist 33.1359
lhand -42.3973 -10.7265
lfingers 7.12502
lthumb -15.2779 18.6893
rfemur 353.147 1.83693 -334.514
rtibia 57.4855
rfoot -41.2053 8.69726
rtoes -28.8802
lfemur -41.5849 -4.92863 5.98301
ltibia 62.2225
lfoot -12.7027 10.49
ltoes -32.3522
